<?xml version="1.0" encoding="utf-8"?>
<svg version="1.1" xmlns:xlink="http://www.w3.org/1999/xlink" width="52px" height="52px" xmlns="http://www.w3.org/2000/svg">
  <defs>
    <mask fill="white" id="clip258">
      <path d="M 56 100  C 41.57 100  30 88.43  30 74  L 30 74  C 30 59.57  41.57 48  56 48  L 56 48  C 70.43 48  82 59.57  82 74  L 82 74  C 82 88.43  70.43 100  56 100  " fill-rule="evenodd" />
    </mask>
  </defs>
  <g transform="matrix(1 0 0 1 -30 -48 )">
    <path d="M 30 48  L 82 48  L 82 100  L 30 100  L 30 48  " fill-rule="nonzero" fill="#cccccc" stroke="none" mask="url(#clip258)" />
    <path d="M 34 52  L 78 52  L 78 96  L 34 96  L 34 52  " fill-rule="nonzero" fill="#ffffff" stroke="none" mask="url(#clip258)" />
    <path d="M 60.94 63.6  C 58.756 63.6  57.04 61.884  57.04 59.7  C 57.04 57.516  58.756 55.8  60.94 55.8  C 63.124 55.8  64.84 57.516  64.84 59.7  C 64.84 61.884  63.124 63.6  60.94 63.6  " fill-rule="nonzero" fill="#cccccc" stroke="none" mask="url(#clip258)" />
    <path d="M 36 95  L 36 72.45  L 46.25 62.2  L 60.6 70.4  L 68.8 68.35  L 77 70.4  L 77 95  L 36 95  " fill-rule="nonzero" fill="#169bd5" stroke="none" mask="url(#clip258)" />
  </g>
</svg>