<?xml version="1.0" encoding="utf-8"?>
<svg version="1.1" xmlns:xlink="http://www.w3.org/1999/xlink" width="50px" height="50px" xmlns="http://www.w3.org/2000/svg">
  <g transform="matrix(1 0 0 1 -26 -18 )">
    <path d="M 26 18  L 76 18  L 76 68  L 26 68  L 26 18  " fill-rule="nonzero" fill="#cccccc" stroke="none" />
    <path d="M 30 22  L 72 22  L 72 64  L 30 64  L 30 22  " fill-rule="nonzero" fill="#ffffff" stroke="none" />
    <path d="M 55.75 33  C 53.65 33  52 31.35  52 29.25  C 52 27.15  53.65 25.5  55.75 25.5  C 57.85 25.5  59.5 27.15  59.5 29.25  C 59.5 31.35  57.85 33  55.75 33  " fill-rule="nonzero" fill="#cccccc" stroke="none" />
    <path d="M 32 63  L 32 41.55  L 41.75 31.8  L 55.4 39.6  L 63.2 37.65  L 71 39.6  L 71 63  L 32 63  " fill-rule="nonzero" fill="#169bd5" stroke="none" />
  </g>
</svg>