<?xml version="1.0" encoding="utf-8"?>
<svg version="1.1" xmlns:xlink="http://www.w3.org/1999/xlink" width="196px" height="111px" xmlns="http://www.w3.org/2000/svg">
  <g transform="matrix(1 0 0 1 -10 -125 )">
    <path d="M 10 125  L 206 125  L 206 236  L 10 236  L 10 125  " fill-rule="nonzero" fill="#cccccc" stroke="none" />
    <path d="M 18 133  L 198 133  L 198 228  L 18 228  L 18 133  " fill-rule="nonzero" fill="#ffffff" stroke="none" />
    <path d="M 120.245 158.3  C 115.583 158.3  111.92 154.637  111.92 149.975  C 111.92 145.313  115.583 141.65  120.245 141.65  C 124.907 141.65  128.57 145.313  128.57 149.975  C 128.57 154.637  124.907 158.3  120.245 158.3  " fill-rule="nonzero" fill="#cccccc" stroke="none" />
    <path d="M 21 225  L 21 176.05  L 64.5 153.8  L 125.4 194.758163265306  L 160.2 167.15  L 195 194.758163265306  L 195 225  L 21 225  " fill-rule="nonzero" fill="#169bd5" stroke="none" />
  </g>
</svg>