<?xml version="1.0" encoding="utf-8"?>
<svg version="1.1" xmlns:xlink="http://www.w3.org/1999/xlink" width="101px" height="79px" xmlns="http://www.w3.org/2000/svg">
  <g transform="matrix(1 0 0 1 -10 -7 )">
    <path d="M 10 7  L 111 7  L 111 86  L 10 86  L 10 7  " fill-rule="nonzero" fill="#cccccc" stroke="none" />
    <path d="M 16 13  L 105 13  L 105 80  L 16 80  L 16 13  " fill-rule="nonzero" fill="#ffffff" stroke="none" />
    <path d="M 68.445 30.7  C 65.127 30.7  62.52 28.093  62.52 24.775  C 62.52 21.457  65.127 18.85  68.445 18.85  C 71.763 18.85  74.37 21.457  74.37 24.775  C 74.37 28.093  71.763 30.7  68.445 30.7  " fill-rule="nonzero" fill="#cccccc" stroke="none" />
    <path d="M 18 78  L 18 43.35  L 39.25 27.6  L 69 48.4336633663366  L 86 37.05  L 103 48.4336633663366  L 103 78  L 18 78  " fill-rule="nonzero" fill="#169bd5" stroke="none" />
  </g>
</svg>