<?xml version="1.0" encoding="utf-8"?>
<svg version="1.1" xmlns:xlink="http://www.w3.org/1999/xlink" width="45px" height="45px" xmlns="http://www.w3.org/2000/svg">
  <defs>
    <mask fill="white" id="clip256">
      <path d="M 47 446  C 37.565 446  30 438.435  30 429  L 30 418  C 30 408.565  37.565 401  47 401  L 58 401  C 67.435 401  75 408.565  75 418  L 75 429  C 75 438.435  67.435 446  58 446  " fill-rule="evenodd" />
    </mask>
  </defs>
  <g transform="matrix(1 0 0 1 -30 -401 )">
    <path d="M 30 401  L 75 401  L 75 446  L 30 446  L 30 401  " fill-rule="nonzero" fill="#cccccc" stroke="none" mask="url(#clip256)" />
    <path d="M 33 404  L 72 404  L 72 443  L 33 443  L 33 404  " fill-rule="nonzero" fill="#ffffff" stroke="none" mask="url(#clip256)" />
    <path d="M 56.775 414.5  C 54.885 414.5  53.4 413.015  53.4 411.125  C 53.4 409.235  54.885 407.75  56.775 407.75  C 58.665 407.75  60.15 409.235  60.15 411.125  C 60.15 413.015  58.665 414.5  56.775 414.5  " fill-rule="nonzero" fill="#cccccc" stroke="none" mask="url(#clip256)" />
    <path d="M 34 442  L 34 421.65  L 43.25 412.4  L 56.2 419.8  L 63.6 417.95  L 71 419.8  L 71 442  L 34 442  " fill-rule="nonzero" fill="#169bd5" stroke="none" mask="url(#clip256)" />
  </g>
</svg>