<?xml version="1.0" encoding="utf-8"?>
<svg version="1.1" xmlns:xlink="http://www.w3.org/1999/xlink" width="4px" height="4px" xmlns="http://www.w3.org/2000/svg">
  <g transform="matrix(1 0 0 1 -402 -395 )">
    <path d="M 404 395  C 405.12 395  406 395.88  406 397  C 406 398.12  405.12 399  404 399  C 402.88 399  402 398.12  402 397  C 402 395.88  402.88 395  404 395  Z " fill-rule="nonzero" fill="#7f7f7f" stroke="none" />
    <path d="M 404 395.5  C 404.84 395.5  405.5 396.16  405.5 397  C 405.5 397.84  404.84 398.5  404 398.5  C 403.16 398.5  402.5 397.84  402.5 397  C 402.5 396.16  403.16 395.5  404 395.5  Z " stroke-width="1" stroke="#797979" fill="none" />
  </g>
</svg>