<?xml version="1.0" encoding="utf-8"?>
<svg version="1.1" xmlns:xlink="http://www.w3.org/1999/xlink" width="402px" height="25px" xmlns="http://www.w3.org/2000/svg">
  <defs>
    <mask fill="white" id="clip257">
      <path d="M 12.5 25  C 5.5 25  0 19.5  0 12.5  C 0 5.5  5.5 0  12.5 0  L 227 0  L 389.5 0  C 396.5 0  402 5.5  402 12.5  C 402 19.5  396.5 25  389.5 25  L 12.5 25  Z " fill-rule="evenodd" />
    </mask>
  </defs>
  <g transform="matrix(1 0 0 1 -8 -4 )">
    <path d="M 12.5 25  C 5.5 25  0 19.5  0 12.5  C 0 5.5  5.5 0  12.5 0  L 227 0  L 389.5 0  C 396.5 0  402 5.5  402 12.5  C 402 19.5  396.5 25  389.5 25  L 12.5 25  Z " fill-rule="nonzero" fill="#f2f2f2" stroke="none" transform="matrix(1 0 0 1 8 4 )" />
    <path d="M 12.5 25  C 5.5 25  0 19.5  0 12.5  C 0 5.5  5.5 0  12.5 0  L 227 0  L 389.5 0  C 396.5 0  402 5.5  402 12.5  C 402 19.5  396.5 25  389.5 25  L 12.5 25  Z " stroke-width="2" stroke="#797979" fill="none" transform="matrix(1 0 0 1 8 4 )" mask="url(#clip257)" />
  </g>
</svg>