<?xml version="1.0" encoding="utf-8"?>
<svg version="1.1" xmlns:xlink="http://www.w3.org/1999/xlink" width="20px" height="20px" xmlns="http://www.w3.org/2000/svg">
  <g transform="matrix(1 0 0 1 -15 -217 )">
    <path d="M 15 217  L 35 217  L 35 237  L 15 237  L 15 217  " fill-rule="nonzero" fill="#cccccc" stroke="none" />
    <path d="M 16 218  L 34 218  L 34 236  L 16 236  L 16 218  " fill-rule="nonzero" fill="#ffffff" stroke="none" />
    <path d="M 26.9 223  C 26.06 223  25.4 222.34  25.4 221.5  C 25.4 220.66  26.06 220  26.9 220  C 27.74 220  28.4 220.66  28.4 221.5  C 28.4 222.34  27.74 223  26.9 223  " fill-rule="nonzero" fill="#cccccc" stroke="none" />
    <path d="M 17 236  L 17 226.65  L 21.25 222.4  L 27.2 225.8  L 30.6 224.95  L 34 225.8  L 34 236  L 17 236  " fill-rule="nonzero" fill="#169bd5" stroke="none" />
  </g>
</svg>