<?xml version="1.0" encoding="utf-8"?>
<svg version="1.1" xmlns:xlink="http://www.w3.org/1999/xlink" width="175px" height="175px" xmlns="http://www.w3.org/2000/svg">
  <g transform="matrix(1 0 0 1 -25 -829 )">
    <path d="M 25 829  L 200 829  L 200 1004  L 25 1004  L 25 829  " fill-rule="nonzero" fill="#cccccc" stroke="none" />
    <path d="M 37 841  L 188 841  L 188 992  L 37 992  L 37 841  " fill-rule="nonzero" fill="#ffffff" stroke="none" />
    <path d="M 129.125 881.5  C 121.775 881.5  116 875.725  116 868.375  C 116 861.025  121.775 855.25  129.125 855.25  C 136.475 855.25  142.25 861.025  142.25 868.375  C 142.25 875.725  136.475 881.5  129.125 881.5  " fill-rule="nonzero" fill="#cccccc" stroke="none" />
    <path d="M 42 988  L 42 909.9  L 77.5 874.4  L 127.2 902.8  L 155.6 895.7  L 184 902.8  L 184 988  L 42 988  " fill-rule="nonzero" fill="#169bd5" stroke="none" />
  </g>
</svg>