<?xml version="1.0" encoding="utf-8"?>
<svg version="1.1" xmlns:xlink="http://www.w3.org/1999/xlink" width="94px" height="46px" xmlns="http://www.w3.org/2000/svg">
  <g transform="matrix(1 0 0 1 -10 -7 )">
    <path d="M 10 7  L 104 7  L 104 53  L 10 53  L 10 7  " fill-rule="nonzero" fill="#cccccc" stroke="none" />
    <path d="M 13 10  L 101 10  L 101 50  L 13 50  L 13 10  " fill-rule="nonzero" fill="#ffffff" stroke="none" />
    <path d="M 62.33 20.8  C 60.398 20.8  58.88 19.282  58.88 17.35  C 58.88 15.418  60.398 13.9  62.33 13.9  C 64.262 13.9  65.78 15.418  65.78 17.35  C 65.78 19.282  64.262 20.8  62.33 20.8  " fill-rule="nonzero" fill="#cccccc" stroke="none" />
    <path d="M 14 49  L 14 28.1  L 35.5 18.6  L 65.6 37.8425531914894  L 82.8 24.3  L 100 37.8425531914894  L 100 49  L 14 49  " fill-rule="nonzero" fill="#169bd5" stroke="none" />
  </g>
</svg>