<?xml version="1.0" encoding="utf-8"?>
<svg version="1.1" xmlns:xlink="http://www.w3.org/1999/xlink" width="48px" height="48px" xmlns="http://www.w3.org/2000/svg">
  <g transform="matrix(1 0 0 1 -31 -33 )">
    <path d="M 55 33  C 68.44 33  79 43.56  79 57  C 79 70.44  68.44 81  55 81  C 41.56 81  31 70.44  31 57  C 31 43.56  41.56 33  55 33  Z " fill-rule="nonzero" fill="#ffffff" stroke="none" />
    <path d="M 55 33.5  C 68.16 33.5  78.5 43.84  78.5 57  C 78.5 70.16  68.16 80.5  55 80.5  C 41.84 80.5  31.5 70.16  31.5 57  C 31.5 43.84  41.84 33.5  55 33.5  Z " stroke-width="1" stroke="#797979" fill="none" />
  </g>
</svg>