<?xml version="1.0" encoding="utf-8"?>
<svg version="1.1" xmlns:xlink="http://www.w3.org/1999/xlink" width="34px" height="33px" xmlns="http://www.w3.org/2000/svg">
  <g transform="matrix(1 0 0 1 -38 -41 )">
    <path d="M 38 41  L 72 41  L 72 74  L 38 74  L 38 41  " fill-rule="nonzero" fill="#cccccc" stroke="none" />
    <path d="M 40 43  L 70 43  L 70 72  L 40 72  L 40 43  " fill-rule="nonzero" fill="#ffffff" stroke="none" />
    <path d="M 58.155 50.9  C 56.769 50.9  55.68 49.811  55.68 48.425  C 55.68 47.039  56.769 45.95  58.155 45.95  C 59.541 45.95  60.63 47.039  60.63 48.425  C 60.63 49.811  59.541 50.9  58.155 50.9  " fill-rule="nonzero" fill="#cccccc" stroke="none" />
    <path d="M 41 71  L 41 56.15  L 48 49.4  L 57.8 55.2764705882353  L 63.4 53.45  L 69 55.2764705882353  L 69 71  L 41 71  " fill-rule="nonzero" fill="#169bd5" stroke="none" />
  </g>
</svg>