<?xml version="1.0" encoding="utf-8"?>
<svg version="1.1" xmlns:xlink="http://www.w3.org/1999/xlink" width="38px" height="38px" xmlns="http://www.w3.org/2000/svg">
  <g transform="matrix(1 0 0 1 -43 -59 )">
    <path d="M 43 59  L 81 59  L 81 97  L 43 97  L 43 59  " fill-rule="nonzero" fill="#cccccc" stroke="none" />
    <path d="M 46 62  L 78 62  L 78 94  L 46 94  L 46 62  " fill-rule="nonzero" fill="#ffffff" stroke="none" />
    <path d="M 65.61 70.4  C 64.014 70.4  62.76 69.146  62.76 67.55  C 62.76 65.954  64.014 64.7  65.61 64.7  C 67.206 64.7  68.46 65.954  68.46 67.55  C 68.46 69.146  67.206 70.4  65.61 70.4  " fill-rule="nonzero" fill="#cccccc" stroke="none" />
    <path d="M 47 93  L 47 76.5  L 54.5 69  L 65 75  L 71 73.5  L 77 75  L 77 93  L 47 93  " fill-rule="nonzero" fill="#169bd5" stroke="none" />
  </g>
</svg>