<?xml version="1.0" encoding="utf-8"?>
<svg version="1.1" xmlns:xlink="http://www.w3.org/1999/xlink" width="152px" height="114px" xmlns="http://www.w3.org/2000/svg">
  <defs>
    <mask fill="white" id="clip255">
      <path d="M 38 713  C 33.56 713  30 709.44  30 705  L 30 607  C 30 602.56  33.56 599  38 599  L 174 599  C 178.44 599  182 602.56  182 607  L 182 705  C 182 709.44  178.44 713  174 713  " fill-rule="evenodd" />
    </mask>
  </defs>
  <g transform="matrix(1 0 0 1 -30 -599 )">
    <path d="M 30 599  L 182 599  L 182 713  L 30 713  L 30 599  " fill-rule="nonzero" fill="#cccccc" stroke="none" mask="url(#clip255)" />
    <path d="M 38 607  L 174 607  L 174 705  L 38 705  L 38 607  " fill-rule="nonzero" fill="#ffffff" stroke="none" mask="url(#clip255)" />
    <path d="M 117.59 633.2  C 112.802 633.2  109.04 629.438  109.04 624.65  C 109.04 619.862  112.802 616.1  117.59 616.1  C 122.378 616.1  126.14 619.862  126.14 624.65  C 126.14 629.438  122.378 633.2  117.59 633.2  " fill-rule="nonzero" fill="#cccccc" stroke="none" mask="url(#clip255)" />
    <path d="M 41 702  L 41 651.4  L 73.5 628.4  L 119 660.6  L 145 642.2  L 171 660.6  L 171 702  L 41 702  " fill-rule="nonzero" fill="#169bd5" stroke="none" mask="url(#clip255)" />
  </g>
</svg>