<?xml version="1.0" encoding="utf-8"?>
<svg version="1.1" xmlns:xlink="http://www.w3.org/1999/xlink" width="15px" height="15px" xmlns="http://www.w3.org/2000/svg">
  <g transform="matrix(1 0 0 1 -107 -18 )">
    <path d="M 114.5 18  C 118.7 18  122 21.3  122 25.5  C 122 29.7  118.7 33  114.5 33  C 110.3 33  107 29.7  107 25.5  C 107 21.3  110.3 18  114.5 18  Z " fill-rule="nonzero" fill="#ffffff" stroke="none" />
    <path d="M 114.5 18.5  C 118.42 18.5  121.5 21.58  121.5 25.5  C 121.5 29.42  118.42 32.5  114.5 32.5  C 110.58 32.5  107.5 29.42  107.5 25.5  C 107.5 21.58  110.58 18.5  114.5 18.5  Z " stroke-width="1" stroke="#797979" fill="none" />
  </g>
</svg>