<?xml version="1.0" encoding="utf-8"?>
<svg version="1.1" xmlns:xlink="http://www.w3.org/1999/xlink" width="27px" height="27px" xmlns="http://www.w3.org/2000/svg">
  <g transform="matrix(1 0 0 1 -216 -135 )">
    <path d="M 216 135  L 243 135  L 243 162  L 216 162  L 216 135  " fill-rule="nonzero" fill="#cccccc" stroke="none" />
    <path d="M 218 137  L 241 137  L 241 160  L 218 160  L 218 137  " fill-rule="nonzero" fill="#ffffff" stroke="none" />
    <path d="M 232.065 143.1  C 230.931 143.1  230.04 142.209  230.04 141.075  C 230.04 139.941  230.931 139.05  232.065 139.05  C 233.199 139.05  234.09 139.941  234.09 141.075  C 234.09 142.209  233.199 143.1  232.065 143.1  " fill-rule="nonzero" fill="#cccccc" stroke="none" />
    <path d="M 219 160  L 219 147.9  L 224.5 142.4  L 232.2 146.8  L 236.6 145.7  L 241 146.8  L 241 160  L 219 160  " fill-rule="nonzero" fill="#169bd5" stroke="none" />
  </g>
</svg>