<?xml version="1.0" encoding="utf-8"?>
<svg version="1.1" xmlns:xlink="http://www.w3.org/1999/xlink" width="83px" height="22px" xmlns="http://www.w3.org/2000/svg">
  <defs>
    <mask fill="white" id="clip233">
      <path d="M 0 22  L 0 0  L 34.2222222222255 0  L 83 0  L 83 22  L 12.8888888888913 22  L 0 22  Z " fill-rule="evenodd" />
    </mask>
  </defs>
  <g transform="matrix(1 0 0 1 -160 -234 )">
    <path d="M 0 22  L 0 0  L 34.2222222222255 0  L 83 0  L 83 22  L 12.8888888888913 22  L 0 22  Z " fill-rule="nonzero" fill="#aaaaaa" stroke="none" transform="matrix(1 0 0 1 160 234 )" />
    <path d="M 0 22  L 0 0  L 34.2222222222255 0  L 83 0  L 83 22  L 12.8888888888913 22  L 0 22  Z " stroke-width="2" stroke="#aaaaaa" fill="none" transform="matrix(1 0 0 1 160 234 )" mask="url(#clip233)" />
  </g>
</svg>