<?xml version="1.0" encoding="utf-8"?>
<svg version="1.1" xmlns:xlink="http://www.w3.org/1999/xlink" width="39px" height="39px" xmlns="http://www.w3.org/2000/svg">
  <g transform="matrix(1 0 0 1 -45 -803 )">
    <path d="M 64.5 803  C 75.42 803  84 811.58  84 822.5  C 84 833.42  75.42 842  64.5 842  C 53.58 842  45 833.42  45 822.5  C 45 811.58  53.58 803  64.5 803  Z " fill-rule="nonzero" fill="#ffffff" stroke="none" />
    <path d="M 64.5 803.5  C 75.14 803.5  83.5 811.86  83.5 822.5  C 83.5 833.14  75.14 841.5  64.5 841.5  C 53.86 841.5  45.5 833.14  45.5 822.5  C 45.5 811.86  53.86 803.5  64.5 803.5  Z " stroke-width="1" stroke="#797979" fill="none" />
  </g>
</svg>