<?xml version="1.0" encoding="utf-8"?>
<svg version="1.1" xmlns:xlink="http://www.w3.org/1999/xlink" width="23px" height="23px" xmlns="http://www.w3.org/2000/svg">
  <g transform="matrix(1 0 0 1 -53 -811 )">
    <path d="M 53 811  L 76 811  L 76 834  L 53 834  L 53 811  " fill-rule="nonzero" fill="#cccccc" stroke="none" />
    <path d="M 55 813  L 74 813  L 74 832  L 55 832  L 55 813  " fill-rule="nonzero" fill="#ffffff" stroke="none" />
    <path d="M 66.685 817.9  C 65.719 817.9  64.96 817.141  64.96 816.175  C 64.96 815.209  65.719 814.45  66.685 814.45  C 67.651 814.45  68.41 815.209  68.41 816.175  C 68.41 817.141  67.651 817.9  66.685 817.9  " fill-rule="nonzero" fill="#cccccc" stroke="none" />
    <path d="M 56 832  L 56 822.1  L 60.5 817.6  L 66.8 821.2  L 70.4 820.3  L 74 821.2  L 74 832  L 56 832  " fill-rule="nonzero" fill="#169bd5" stroke="none" />
  </g>
</svg>