<?xml version="1.0" encoding="utf-8"?>
<svg version="1.1" xmlns:xlink="http://www.w3.org/1999/xlink" width="208px" height="128px" xmlns="http://www.w3.org/2000/svg">
  <g transform="matrix(1 0 0 1 -212 -246 )">
    <path d="M 212 246  L 420 246  L 420 374  L 212 374  L 212 246  " fill-rule="nonzero" fill="#cccccc" stroke="none" />
    <path d="M 221 255  L 411 255  L 411 365  L 221 365  L 221 255  " fill-rule="nonzero" fill="#ffffff" stroke="none" />
    <path d="M 329.76 284.4  C 324.384 284.4  320.16 280.176  320.16 274.8  C 320.16 269.424  324.384 265.2  329.76 265.2  C 335.136 265.2  339.36 269.424  339.36 274.8  C 339.36 280.176  335.136 284.4  329.76 284.4  " fill-rule="nonzero" fill="#cccccc" stroke="none" />
    <path d="M 224 362  L 224 304.8  L 270 278.8  L 334.4 323.6  L 371.2 294.4  L 408 323.6  L 408 362  L 224 362  " fill-rule="nonzero" fill="#169bd5" stroke="none" />
  </g>
</svg>