<?xml version="1.0" encoding="utf-8"?>
<svg version="1.1" xmlns:xlink="http://www.w3.org/1999/xlink" width="35px" height="35px" xmlns="http://www.w3.org/2000/svg">
  <g transform="matrix(1 0 0 1 -31 -8 )">
    <path d="M 48.5 8  C 58.3 8  66 15.7  66 25.5  C 66 35.3  58.3 43  48.5 43  C 38.7 43  31 35.3  31 25.5  C 31 15.7  38.7 8  48.5 8  Z " fill-rule="nonzero" fill="#ffffff" stroke="none" />
    <path d="M 48.5 8.5  C 58.02 8.5  65.5 15.98  65.5 25.5  C 65.5 35.02  58.02 42.5  48.5 42.5  C 38.98 42.5  31.5 35.02  31.5 25.5  C 31.5 15.98  38.98 8.5  48.5 8.5  Z " stroke-width="1" stroke="#797979" fill="none" />
  </g>
</svg>