<?xml version="1.0" encoding="utf-8"?>
<svg version="1.1" xmlns:xlink="http://www.w3.org/1999/xlink" width="28px" height="16px" xmlns="http://www.w3.org/2000/svg">
  <g transform="matrix(1 0 0 1 -246 -158 )">
    <path d="M 246 158  L 274 158  L 274 174  L 246 174  L 246 158  " fill-rule="nonzero" fill="#cccccc" stroke="none" />
    <path d="M 247 159  L 273 159  L 273 173  L 247 173  L 247 159  " fill-rule="nonzero" fill="#ffffff" stroke="none" />
    <path d="M 261.76 162.8  C 261.088 162.8  260.56 162.272  260.56 161.6  C 260.56 160.928  261.088 160.4  261.76 160.4  C 262.432 160.4  262.96 160.928  262.96 161.6  C 262.96 162.272  262.432 162.8  261.76 162.8  " fill-rule="nonzero" fill="#cccccc" stroke="none" />
    <path d="M 248 173  L 248 165.85  L 254.25 162.6  L 263 168.542857142857  L 268 164.55  L 273 168.542857142857  L 273 173  L 248 173  " fill-rule="nonzero" fill="#169bd5" stroke="none" />
  </g>
</svg>