<?xml version="1.0" encoding="utf-8"?>
<svg version="1.1" xmlns:xlink="http://www.w3.org/1999/xlink" width="199px" height="122px" xmlns="http://www.w3.org/2000/svg">
  <g transform="matrix(1 0 0 1 -2 -314 )">
    <path d="M 2 314  L 201 314  L 201 436  L 2 436  L 2 314  " fill-rule="nonzero" fill="#cccccc" stroke="none" />
    <path d="M 11 323  L 192 323  L 192 427  L 11 427  L 11 323  " fill-rule="nonzero" fill="#ffffff" stroke="none" />
    <path d="M 114.63 350.6  C 109.506 350.6  105.48 346.574  105.48 341.45  C 105.48 336.326  109.506 332.3  114.63 332.3  C 119.754 332.3  123.78 336.326  123.78 341.45  C 123.78 346.574  119.754 350.6  114.63 350.6  " fill-rule="nonzero" fill="#cccccc" stroke="none" />
    <path d="M 14 424  L 14 370.1  L 57.75 345.6  L 119 387.95175879397  L 154 360.3  L 189 387.95175879397  L 189 424  L 14 424  " fill-rule="nonzero" fill="#169bd5" stroke="none" />
  </g>
</svg>