<?xml version="1.0" encoding="utf-8"?>
<svg version="1.1" xmlns:xlink="http://www.w3.org/1999/xlink" width="197px" height="122px" xmlns="http://www.w3.org/2000/svg">
  <g transform="matrix(1 0 0 1 -223 -315 )">
    <path d="M 223 315  L 420 315  L 420 437  L 223 437  L 223 315  " fill-rule="nonzero" fill="#cccccc" stroke="none" />
    <path d="M 232 324  L 411 324  L 411 428  L 232 428  L 232 324  " fill-rule="nonzero" fill="#ffffff" stroke="none" />
    <path d="M 334.59 351.6  C 329.466 351.6  325.44 347.574  325.44 342.45  C 325.44 337.326  329.466 333.3  334.59 333.3  C 339.714 333.3  343.74 337.326  343.74 342.45  C 343.74 347.574  339.714 351.6  334.59 351.6  " fill-rule="nonzero" fill="#cccccc" stroke="none" />
    <path d="M 235 425  L 235 371.1  L 278.25 346.6  L 338.8 388.58578680203  L 373.4 361.3  L 408 388.58578680203  L 408 425  L 235 425  " fill-rule="nonzero" fill="#169bd5" stroke="none" />
  </g>
</svg>