<?xml version="1.0" encoding="utf-8"?>
<svg version="1.1" xmlns:xlink="http://www.w3.org/1999/xlink" width="80px" height="80px" xmlns="http://www.w3.org/2000/svg">
  <g transform="matrix(1 0 0 1 -18 -7 )">
    <path d="M 18 7  L 98 7  L 98 87  L 18 87  L 18 7  " fill-rule="nonzero" fill="#cccccc" stroke="none" />
    <path d="M 24 13  L 92 13  L 92 81  L 24 81  L 24 13  " fill-rule="nonzero" fill="#ffffff" stroke="none" />
    <path d="M 65.6 31  C 62.24 31  59.6 28.36  59.6 25  C 59.6 21.64  62.24 19  65.6 19  C 68.96 19  71.6 21.64  71.6 25  C 71.6 28.36  68.96 31  65.6 31  " fill-rule="nonzero" fill="#cccccc" stroke="none" />
    <path d="M 26 79  L 26 43.8  L 42 27.8  L 64.4 40.6  L 77.2 37.4  L 90 40.6  L 90 79  L 26 79  " fill-rule="nonzero" fill="#169bd5" stroke="none" />
  </g>
</svg>