<?xml version="1.0" encoding="utf-8"?>
<svg version="1.1" xmlns:xlink="http://www.w3.org/1999/xlink" width="27px" height="27px" xmlns="http://www.w3.org/2000/svg">
  <g transform="matrix(1 0 0 1 -152 -1027 )">
    <path d="M 165.5 1027  C 173.06 1027  179 1032.94  179 1040.5  C 179 1048.06  173.06 1054  165.5 1054  C 157.94 1054  152 1048.06  152 1040.5  C 152 1032.94  157.94 1027  165.5 1027  Z " fill-rule="nonzero" fill="#ffffff" stroke="none" />
    <path d="M 165.5 1027.5  C 172.78 1027.5  178.5 1033.22  178.5 1040.5  C 178.5 1047.78  172.78 1053.5  165.5 1053.5  C 158.22 1053.5  152.5 1047.78  152.5 1040.5  C 152.5 1033.22  158.22 1027.5  165.5 1027.5  Z " stroke-width="1" stroke="#797979" fill="none" />
  </g>
</svg>