<?xml version="1.0" encoding="utf-8"?>
<svg version="1.1" xmlns:xlink="http://www.w3.org/1999/xlink" width="54px" height="54px" xmlns="http://www.w3.org/2000/svg">
  <defs>
    <mask fill="white" id="clip264">
      <path d="M 67 378  C 53.68 378  43 367.32  43 354  L 43 348  C 43 334.68  53.68 324  67 324  L 73 324  C 86.32 324  97 334.68  97 348  L 97 354  C 97 367.32  86.32 378  73 378  " fill-rule="evenodd" />
    </mask>
  </defs>
  <g transform="matrix(1 0 0 1 -43 -324 )">
    <path d="M 43 324  L 97 324  L 97 378  L 43 378  L 43 324  " fill-rule="nonzero" fill="#cccccc" stroke="none" mask="url(#clip264)" />
    <path d="M 47 328  L 93 328  L 93 374  L 47 374  L 47 328  " fill-rule="nonzero" fill="#ffffff" stroke="none" mask="url(#clip264)" />
    <path d="M 75.13 340.2  C 72.862 340.2  71.08 338.418  71.08 336.15  C 71.08 333.882  72.862 332.1  75.13 332.1  C 77.398 332.1  79.18 333.882  79.18 336.15  C 79.18 338.418  77.398 340.2  75.13 340.2  " fill-rule="nonzero" fill="#cccccc" stroke="none" mask="url(#clip264)" />
    <path d="M 49 373  L 49 349.35  L 59.75 338.6  L 74.8 347.2  L 83.4 345.05  L 92 347.2  L 92 373  L 49 373  " fill-rule="nonzero" fill="#169bd5" stroke="none" mask="url(#clip264)" />
  </g>
</svg>