<?xml version="1.0" encoding="utf-8"?>
<svg version="1.1" xmlns:xlink="http://www.w3.org/1999/xlink" width="40px" height="40px" xmlns="http://www.w3.org/2000/svg">
  <g transform="matrix(1 0 0 1 -16 -182 )">
    <path d="M 16 182  L 56 182  L 56 222  L 16 222  L 16 182  " fill-rule="nonzero" fill="#cccccc" stroke="none" />
    <path d="M 19 185  L 53 185  L 53 219  L 19 219  L 19 185  " fill-rule="nonzero" fill="#ffffff" stroke="none" />
    <path d="M 39.8 194  C 38.12 194  36.8 192.68  36.8 191  C 36.8 189.32  38.12 188  39.8 188  C 41.48 188  42.8 189.32  42.8 191  C 42.8 192.68  41.48 194  39.8 194  " fill-rule="nonzero" fill="#cccccc" stroke="none" />
    <path d="M 20 218  L 20 200.4  L 28 192.4  L 39.2 198.8  L 45.6 197.2  L 52 198.8  L 52 218  L 20 218  " fill-rule="nonzero" fill="#169bd5" stroke="none" />
  </g>
</svg>