<?xml version="1.0" encoding="utf-8"?>
<svg version="1.1" xmlns:xlink="http://www.w3.org/1999/xlink" width="65px" height="61px" xmlns="http://www.w3.org/2000/svg">
  <g transform="matrix(1 0 0 1 -36 -817 )">
    <path d="M 36 817  L 101 817  L 101 878  L 36 878  L 36 817  " fill-rule="nonzero" fill="#cccccc" stroke="none" />
    <path d="M 40 821  L 97 821  L 97 874  L 40 874  L 40 821  " fill-rule="nonzero" fill="#ffffff" stroke="none" />
    <path d="M 74.375 835.3  C 71.813 835.3  69.8 833.287  69.8 830.725  C 69.8 828.163  71.813 826.15  74.375 826.15  C 76.937 826.15  78.95 828.163  78.95 830.725  C 78.95 833.287  76.937 835.3  74.375 835.3  " fill-rule="nonzero" fill="#cccccc" stroke="none" />
    <path d="M 42 873  L 42 845.5  L 55.5 833  L 74.4 844.846153846154  L 85.2 840.5  L 96 844.846153846154  L 96 873  L 42 873  " fill-rule="nonzero" fill="#169bd5" stroke="none" />
  </g>
</svg>