<?xml version="1.0" encoding="utf-8"?>
<svg version="1.1" xmlns:xlink="http://www.w3.org/1999/xlink" width="81px" height="94px" xmlns="http://www.w3.org/2000/svg">
  <g transform="matrix(1 0 0 1 -26 -1409 )">
    <path d="M 26 1409  L 107 1409  L 107 1503  L 26 1503  L 26 1409  " fill-rule="nonzero" fill="#cccccc" stroke="none" />
    <path d="M 32 1415  L 101 1415  L 101 1497  L 32 1497  L 32 1415  " fill-rule="nonzero" fill="#ffffff" stroke="none" />
    <path d="M 74.195 1435.25  C 70.793 1435.25  68.12 1432.577  68.12 1429.175  C 68.12 1425.773  70.793 1423.1  74.195 1423.1  C 77.597 1423.1  80.27 1425.773  80.27 1429.175  C 80.27 1432.577  77.597 1435.25  74.195 1435.25  " fill-rule="nonzero" fill="#cccccc" stroke="none" />
    <path d="M 34 1495  L 34 1452.1  L 50.25 1432.6  L 73 1448.2  L 86 1444.3  L 99 1448.2  L 99 1495  L 34 1495  " fill-rule="nonzero" fill="#169bd5" stroke="none" />
  </g>
</svg>